PathFileType	4	(X/Y/Z)	c:/Users/goper/Files/vsCode/490R/osim_files/C17/C17_Static.trc
DataRate	CameraRate	NumFrames	NumMarkers	Units                	OrigDataRate	OrigDataStartFrame	OrigNumFrames
250.00	250.00	6	36	mm	250.0	1	3257
                Frame#	Time	LPSIS			LASIS			LTH1			LTH2			LTH3			LTH4			LLFE			LMFE			LSH1			LSH2			LSH3			LSH4			LLMAL			LMMAL			LCAL			LMTP5			LTOE			LMTP1			RPSIS			RASIS			RTH1			RTH2			RTH3			RTH4			RLFE			RMFE			RSH1			RSH2			RSH3			RSH4			RLMAL			RMMAL			RCAL			RMTP1			RTOE			RMTP5		
		X1	Y1	Z1	X2	Y2	Z2	X3	Y3	Z3	X4	Y4	Z4	X5	Y5	Z5	X6	Y6	Z6	X7	Y7	Z7	X8	Y8	Z8	X9	Y9	Z9	X10	Y10	Z10	X11	Y11	Z11	X12	Y12	Z12	X13	Y13	Z13	X14	Y14	Z14	X15	Y15	Z15	X16	Y16	Z16	X17	Y17	Z17	X18	Y18	Z18	X19	Y19	Z19	X20	Y20	Z20	X21	Y21	Z21	X22	Y22	Z22	X23	Y23	Z23	X24	Y24	Z24	X25	Y25	Z25	X26	Y26	Z26	X27	Y27	Z27	X28	Y28	Z28	X29	Y29	Z29	X30	Y30	Z30	X31	Y31	Z31	X32	Y32	Z32	X33	Y33	Z33	X34	Y34	Z34	X35	Y35	Z35	X36	Y36	Z36

1	0.00000	-295.73950	1079.28003	405.53464	-83.53046	1030.15991	317.05673	-192.00433	754.64099	263.83173	-191.19165	710.66321	263.86496	-129.94238	751.28607	262.67825	-137.45627	706.89288	263.65717	-200.53267	514.57623	280.03134	-200.98245	504.35764	402.64432	-274.33597	291.25159	262.39899	-273.36081	248.90643	260.01947	-211.62141	284.67542	256.54514	-221.49814	241.94984	257.69644	-259.81967	98.89470	266.88458	-245.74626	98.41238	352.97083	-333.02011	55.47251	308.96860	-143.27562	40.97110	235.93159	-82.98835	58.60853	302.99045	-100.61430	40.63677	352.61371	-298.02182	1070.81042	479.39148	-109.87373	1039.72839	597.55304	-197.93039	782.62347	659.11328	-201.77461	736.47241	655.07196	-138.66386	773.36877	653.96594	-150.38794	727.04993	654.68713	-205.19821	507.05792	652.53851	-213.22661	503.77466	526.43713	-288.82291	329.46735	678.58179	-287.46799	283.55334	674.74933	-227.14343	323.53546	681.28998	-235.41420	276.97964	678.34210	-271.61115	90.80763	665.18146	-245.11870	101.25247	578.54999	-339.03012	51.05397	629.01593	-106.04349	41.63301	577.96088	-89.84614	62.36971	624.46472	-142.11215	35.63715	696.70380
2	0.00400	-295.68597	1079.24219	405.52866	-83.47167	1030.17419	317.05911	-191.96175	754.63062	263.86023	-191.15787	710.65601	263.89163	-129.88722	751.25421	262.66910	-137.40248	706.91614	263.66492	-200.51930	514.57422	280.03400	-200.97478	504.35040	402.63153	-274.33414	291.25742	262.37247	-273.33298	248.88803	260.01755	-211.60020	284.67804	256.55869	-221.46704	241.95255	257.68976	-259.78506	98.88458	266.87952	-245.97525	98.14870	353.06802	-333.05243	55.50165	308.96988	-143.25655	40.99230	235.92136	-82.98142	58.61856	302.98035	-100.59300	40.65333	352.60153	-297.99304	1070.79187	479.40665	-109.70704	1039.77234	597.57458	-197.87703	782.62256	659.11279	-201.71284	736.47931	655.06787	-138.60719	773.36475	653.93445	-150.32071	727.07507	654.67627	-205.19539	507.05255	652.51544	-213.03624	503.80035	526.52014	-288.82565	329.47693	678.56592	-287.46857	283.57974	674.73474	-227.10950	323.55396	681.27240	-235.39806	276.98755	678.33185	-271.62347	90.80651	665.18414	-245.11276	101.25569	578.54358	-339.07846	51.07901	628.96625	-106.02149	41.64849	577.95551	-89.83279	62.37469	624.46960	-142.11668	35.63334	696.70074
3	0.00800	-295.59933	1079.20752	405.51147	-83.41456	1030.19214	317.06921	-191.95479	754.62537	263.87451	-191.13336	710.65729	263.89224	-129.83615	751.27893	262.66415	-137.35057	706.92554	263.65845	-200.50729	514.58270	280.04663	-200.94472	504.35562	402.62704	-274.35287	291.27158	262.38342	-273.35922	248.91237	260.02835	-211.58070	284.69104	256.55090	-221.45958	241.96510	257.69855	-259.79001	98.89716	266.89798	-245.95276	98.18763	353.04391	-333.03116	55.47972	308.97073	-143.25064	41.01856	235.89952	-82.96634	58.65318	302.97369	-100.87645	40.33354	352.64194	-297.90558	1070.76501	479.41168	-109.58451	1039.83411	597.57343	-197.78586	782.65521	659.07013	-201.67793	736.50391	655.02985	-138.50696	773.42578	653.90558	-150.24106	727.09741	654.64612	-205.14172	507.07611	652.49127	-212.98618	503.79172	526.53412	-288.81149	329.51633	678.52203	-287.44592	283.61389	674.70129	-227.09265	323.60681	681.25323	-235.36774	277.02310	678.31256	-271.60239	90.84483	665.13428	-245.10852	101.26638	578.55334	-339.08670	51.28762	628.97485	-106.02065	41.66248	577.97156	-89.83278	62.37774	624.45825	-142.13405	35.65464	696.66241
4	0.01200	-295.55460	1079.17676	405.52084	-83.35735	1030.19763	317.07385	-191.92830	754.62128	263.84888	-191.09293	710.66455	263.87726	-129.75311	751.29913	262.66556	-137.29477	706.94037	263.66934	-200.46910	514.56769	280.04254	-200.92003	504.33649	402.61514	-274.30038	291.27844	262.35245	-273.34326	248.91632	260.02985	-211.56520	284.69534	256.55441	-221.45465	241.95163	257.71179	-259.78223	98.89761	266.89938	-245.70927	98.46201	352.91751	-333.06985	55.50153	308.96979	-143.23071	41.01839	235.89731	-82.95831	58.67498	302.97971	-100.57539	40.68797	352.58249	-297.84567	1070.73682	479.42709	-109.53588	1039.82349	597.54327	-197.72237	782.67700	659.05505	-201.63092	736.50214	655.01166	-138.44838	773.44165	653.89569	-150.16061	727.13019	654.63885	-205.08189	507.09067	652.47870	-212.78682	503.91852	526.28351	-288.80960	329.51852	678.50031	-287.47586	283.61832	674.66736	-227.02452	323.61377	681.24146	-235.31963	277.02631	678.30029	-271.60925	90.83348	665.12885	-245.11060	101.25476	578.54871	-339.09937	51.27721	628.93103	-106.02000	41.66412	577.97028	-89.82384	62.39660	624.46307	-142.08699	35.68876	696.66803
5	0.01600	-295.53647	1079.16235	405.50839	-83.33775	1030.19385	317.07736	-191.86464	754.65936	263.84045	-191.03227	710.67633	263.86658	-129.65176	751.32233	262.69144	-137.25270	706.93860	263.69522	-200.45166	514.57153	280.04019	-200.87521	504.33112	402.61542	-274.28748	291.37106	262.41586	-273.30475	248.91826	260.01593	-211.54733	284.68195	256.56366	-221.44421	241.97044	257.71866	-259.79800	98.90749	266.91135	-245.69963	98.47256	352.92813	-333.07846	55.50921	308.94217	-143.21770	41.02549	235.88809	-82.93584	58.69699	302.98245	-100.56064	40.71411	352.57196	-297.79953	1070.71570	479.41501	-109.46830	1039.82458	597.55530	-197.68192	782.66681	659.03534	-201.59335	736.48340	655.00708	-138.34976	773.42065	653.84515	-150.07132	727.13464	654.63885	-205.06575	507.08612	652.46985	-212.96188	503.78094	526.53461	-288.78925	329.51859	678.50702	-287.45920	283.61710	674.66425	-227.01640	323.61887	681.25824	-235.29405	277.03961	678.28583	-271.60562	90.84351	665.10388	-245.11192	101.25089	578.54681	-339.09525	51.10593	628.79401	-106.02213	41.66604	577.98743	-89.86063	62.38385	624.48700	-142.08676	35.69976	696.67389
6	0.02000	-295.49142	1079.13660	405.50082	-83.29120	1030.18030	317.07755	-191.76848	754.68762	263.79681	-191.00571	710.69116	263.85565	-129.60349	751.31116	262.69769	-137.19647	706.94409	263.69086	-200.41679	514.59259	280.02856	-200.83376	504.34094	402.60431	-274.30563	291.33090	262.35883	-273.31354	248.91994	260.01712	-211.50880	284.68448	256.57584	-221.40393	241.97624	257.72476	-259.80023	98.91518	266.91287	-245.96086	98.16089	353.01633	-333.06696	55.51768	308.93472	-143.21039	41.04953	235.87469	-82.92146	58.68542	302.97256	-100.53452	40.70826	352.58496	-297.76343	1070.69617	479.41031	-109.38369	1039.83752	597.58289	-197.63400	782.65631	659.00629	-201.54108	736.47888	654.97015	-138.31329	773.43341	653.86334	-150.03000	727.09894	654.63068	-205.01225	507.08466	652.45856	-212.71141	503.89481	526.28601	-288.81119	329.50500	678.47845	-287.43607	283.60220	674.66162	-226.99763	323.61179	681.24646	-235.28291	277.05692	678.32751	-271.60858	90.81918	665.11871	-245.08205	101.27783	578.54999	-339.12402	51.27952	628.89716	-106.00114	41.68616	577.97314	-89.82566	62.41838	624.47388	-142.07057	35.70374	696.66418
